# xmcd
#
# Track frame offsets: 
#        150
#        12125
#        18042
#        39525
#        56325
#        76277
#        102570
#        119060
#        136510
#        153065
#        173457
#        204357
#        227660
#        247647
#        262902
#        286347
#        305485
#        321962
#
# Disc length: 4527 seconds
#
# Revision: 1
# Processed by: cddbd v1.5.2PL0 Copyright (c) Steve Scherf et al.
# Submitted via: ExactAudioCopy v1.3
#
DISCID=d311ad12
DTITLE=Billy Vera and The Beaters - At This Moment - A Retrospective
DYEAR=2002
DGENRE=R&B
TTITLE0=Country Girl - City Man
TTITLE1=Spoken Intro
TTITLE2=Room With A View
TTITLE3=Heart Be Still
TTITLE4=Poor Boys
TTITLE5=Wrong When I'm Right
TTITLE6=Oh, What A Night
TTITLE7=I've Got My Eye On You
TTITLE8=Ronnie's Song
TTITLE9=You Can't Go Home
TTITLE10=La-La For What's Her Name
TTITLE11=Let You Get Away
TTITLE12=You've Got Me
TTITLE13=Papa Come Quick (Jody and Chico)
TTITLE14=Is That The American Dream, Johnny?
TTITLE15=Desperate Frame of Mind
TTITLE16=Waiting For You
TTITLE17=At This Moment
EXTD=
EXTT0=
EXTT1=
EXTT2=
EXTT3=
EXTT4=
EXTT5=
EXTT6=
EXTT7=
EXTT8=
EXTT9=
EXTT10=
EXTT11=
EXTT12=
EXTT13=
EXTT14=
EXTT15=
EXTT16=
EXTT17=
PLAYORDER=
